<svg width="226" height="226" viewBox="0 0 226 226" fill="none" xmlns="http://www.w3.org/2000/svg">
<path d="M118.4 193.704C118.848 193.052 120.083 192.387 120.769 192.543C125.439 193.622 130.828 200.444 130.822 206.255C129.763 211.753 125.745 216.621 120.606 220.667C120.015 221.135 118.202 220.674 117.354 220.076C114.231 217.863 111.319 215.351 108.238 213.084C106.812 212.039 106.744 211.123 107.688 209.725C111.286 204.396 114.761 198.999 118.4 193.704ZM141.513 192.516C142.687 190.662 143.869 190.506 145.661 191.701C149.965 194.586 154.011 197.594 154.547 204.191C154.126 205.386 153.685 207.403 152.721 209.134C151.533 211.286 150.06 213.335 148.451 215.202C143.496 220.945 143.462 220.884 137.542 216.017C135.798 214.584 134.033 213.145 132.125 211.964C130.32 210.851 130.266 209.772 131.366 208.122C134.807 202.956 138.194 197.756 141.513 192.516ZM125.785 5.30273C125.826 6.15126 125.935 7.00689 125.894 7.84863C124.339 37.3164 123.049 66.7909 121.128 96.2314C119.581 119.929 113.404 142.378 99.9085 162.274C90.4864 176.163 78.0979 185.973 60.9779 188.735C42.9482 191.648 26.0926 180.249 24.2122 163.469C23.1194 153.721 24.3072 144.075 26.846 134.585C29.9483 122.977 35.0464 112.245 40.4906 101.648C40.8095 101.75 41.1286 101.852 41.4476 101.954C40.7892 104.242 40.2467 106.564 39.4593 108.804C36.9884 115.829 33.8449 122.678 32.0257 129.86C27.016 149.635 37.3071 163.197 57.7738 164.589C81.1253 166.171 107.843 151.305 111.516 119.923C113.281 104.799 113.634 89.4906 114.354 74.2578C114.985 60.9393 114.252 47.471 115.983 34.3154C117.259 24.622 121.536 15.3288 124.489 5.85938C124.584 5.56078 124.841 5.30951 125.018 5.03125C125.276 5.1195 125.528 5.21449 125.785 5.30273ZM201.922 102.959C201.922 104.025 202.119 105.138 201.888 106.149C199.003 119.264 196.172 132.393 193.083 145.467C190.694 155.588 184.531 162.159 174.152 164.494C170.194 165.383 166.305 166.619 162.361 167.59C161.241 167.868 160.025 167.766 158.858 167.841C158.681 167.563 158.505 167.277 158.328 166.992C159.448 165.696 160.419 164.23 161.708 163.144C166.555 159.071 171.443 155.045 176.418 151.135C183.743 145.378 188.95 138.21 191.679 129.256C193.919 121.911 196.213 114.58 198.576 107.276C199.098 105.654 200.014 104.16 200.754 102.605C201.141 102.721 201.535 102.844 201.922 102.959ZM157.473 21.6357C156.808 26.7201 156.027 31.784 155.504 36.8887C153.861 52.6306 152.219 68.3657 150.814 84.1279C150.529 87.3251 151.125 90.6515 151.661 93.8623C151.926 95.4711 152.775 97.08 153.692 98.4648C157.561 104.323 164.58 103.916 167.845 97.6709C169.128 95.2068 170.201 92.6267 171.375 90.0947C171.714 90.1219 172.047 90.1496 172.379 90.1768C172.508 91.609 173.058 93.1566 172.692 94.4463C170.465 102.239 168.639 110.229 165.49 117.648C162.272 125.217 156.801 128.184 151.438 127.125C146.455 126.147 142.036 120.628 141.676 113.032C141.289 104.832 141.364 96.5032 142.382 88.3711C144.425 72.0048 146.937 55.6856 149.89 39.4551C151.024 33.237 153.875 27.3374 155.939 21.2891C156.448 21.4044 156.964 21.5204 157.473 21.6357Z" fill="#D1D5DB"/>
</svg>
